<?xml version="1.0" encoding="UTF-8"?>
<svg version="1.1" xmlns="http://www.w3.org/2000/svg" width="128" height="128">
<path d="M0 0 C2.86935547 0.01072839 5.73808514 0.00003553 8.60742188 -0.01269531 C45.31870348 -0.04151774 45.31870348 -0.04151774 57.89648438 12.00292969 C67.46490153 22.93286075 67.22862999 37.54468752 67.1887207 51.2956543 C67.18556547 53.55990046 67.20909578 55.82282859 67.234375 58.08691406 C67.29823593 72.56317331 66.38552191 86.27241451 55.98632812 97.25292969 C46.6723886 106.07280955 34.37124033 107.50766698 21.87304688 107.26074219 C21.65648438 107.92589844 21.43992187 108.59105469 21.21679688 109.27636719 C19.42623007 113.25309113 16.9718892 116.52547302 14.37304688 120.01074219 C13.87417969 120.69523437 13.3753125 121.37972656 12.86132812 122.08496094 C9.13526234 127.12963446 9.13526234 127.12963446 6.87304688 128.26074219 C1.18876315 128.81985206 1.18876315 128.81985206 -1.12695312 128.26074219 C-5.26153475 124.73105916 -8.32630851 120.48698945 -11.43945312 116.07324219 C-11.89384766 115.44482422 -12.34824219 114.81640625 -12.81640625 114.16894531 C-16.12695312 109.51426662 -16.12695312 109.51426662 -16.12695312 107.26074219 C-16.99835937 107.22335938 -17.86976562 107.18597656 -18.76757812 107.14746094 C-33.01279806 106.3611988 -43.56901078 104.56247653 -53.43945312 93.82324219 C-61.91929841 83.25216134 -61.48013406 69.1491131 -61.44262695 56.22583008 C-61.43947172 53.96158392 -61.46300203 51.69865579 -61.48828125 49.43457031 C-61.55163137 35.09629465 -60.6499847 21.53580596 -50.53320312 10.52636719 C-37.62634325 -1.77167854 -16.56507135 -0.0734969 0 0 Z " fill="#FBA84C" transform="translate(61.126953125,-0.2607421875)"/>
<path d="M0 0 C10.6577813 1.06211566 18.5535654 3.98200561 25.9375 11.9375 C34.62950432 22.77189975 34.35416758 36.77167646 34.31567383 50.03491211 C34.31251859 52.29915827 34.33604891 54.5620864 34.36132812 56.82617188 C34.42518905 71.30243113 33.51247504 85.01167232 23.11328125 95.9921875 C13.79934172 104.81206737 1.49819346 106.24692479 -11 106 C-11.2165625 106.66515625 -11.433125 107.3303125 -11.65625 108.015625 C-13.4468168 111.99234894 -15.90115768 115.26473084 -18.5 118.75 C-18.99886719 119.43449219 -19.49773437 120.11898437 -20.01171875 120.82421875 C-23.73778454 125.86889227 -23.73778454 125.86889227 -26 127 C-31.68428373 127.55910987 -31.68428373 127.55910987 -34 127 C-38.13458162 123.47031698 -41.19935538 119.22624726 -44.3125 114.8125 C-44.76689453 114.18408203 -45.22128906 113.55566406 -45.68945312 112.90820312 C-49 108.25352444 -49 108.25352444 -49 106 C-49.87140625 105.96261719 -50.7428125 105.92523438 -51.640625 105.88671875 C-72.30819623 104.74597618 -72.30819623 104.74597618 -80 98 C-79.27111572 98.02618408 -78.54223145 98.05236816 -77.79125977 98.0793457 C-64.38819619 98.49631114 -52.25205772 98.72115447 -39.55078125 94.1484375 C-36.0727797 93.02353931 -33.3181873 92.73508437 -29.6875 92.6875 C-27.14666599 92.6427581 -27.14666599 92.6427581 -25 92 C-23.5059112 90.14384674 -22.82201725 88.40097703 -22.00390625 86.16796875 C-20.80682993 83.58284284 -19.46898383 82.45328097 -17.25 80.6875 C-4.38182099 70.11550163 2.99707949 53.26371453 5 37 C5.74653524 27.20721419 4.63158345 18.91787287 1.97265625 9.55859375 C1.10176517 6.37232155 0.47793238 3.26503281 0 0 Z " fill="#F9973D" transform="translate(94,1)"/>
<path d="M0 0 C4.44711678 2.70905149 8.1111307 6.7847614 10.4375 11.4375 C11.13778584 17.19934555 11.54388704 22.7556572 8.125 27.6875 C5.35130259 30.90792271 2.12589047 33.11593006 -1.375 35.5 C-5.76756242 38.35581264 -5.76756242 38.35581264 -7.5 43.1875 C-7.520625 44.26 -7.54125 45.3325 -7.5625 46.4375 C-9.25 48.875 -9.25 48.875 -11.5625 50.4375 C-15.09593747 51.02640625 -16.83345134 50.85958081 -19.9375 49.0625 C-22.41051354 45.06763197 -22.48408451 41.00476439 -21.5625 36.4375 C-18.29093893 30.36953317 -13.70505189 27.55401397 -8.046875 23.87890625 C-5.16538815 21.57126673 -5.16538815 21.57126673 -5.203125 17.65234375 C-5.32171875 16.59144531 -5.4403125 15.53054687 -5.5625 14.4375 C-8.28862745 12.58373334 -9.69873489 12.44236553 -13.0625 12.5625 C-18.0015609 13.79726523 -19.61293138 15.8670596 -22.1875 20.125 C-22.868125 21.2696875 -22.868125 21.2696875 -23.5625 22.4375 C-26.61233996 23.96241998 -29.2048369 23.67312548 -32.5625 23.4375 C-34.5 22.4375 -34.5 22.4375 -35.5625 20.4375 C-36.09322943 15.81257212 -36.08427744 13.48105488 -34 9.3125 C-25.46127309 -0.75881892 -12.90599056 -5.82770504 0 0 Z " fill="#FEFDFB" transform="translate(78.5625,22.5625)"/>
<path d="M0 0 C1.3303125 0.00773437 1.3303125 0.00773437 2.6875 0.015625 C3.574375 0.01046875 4.46125 0.0053125 5.375 0 C7.6875 0.265625 7.6875 0.265625 9.6875 2.265625 C9.953125 4.578125 9.953125 4.578125 9.9375 7.265625 C9.94265625 8.1525 9.9478125 9.039375 9.953125 9.953125 C9.6875 12.265625 9.6875 12.265625 7.6875 14.265625 C5.375 14.53125 5.375 14.53125 2.6875 14.515625 C1.3571875 14.52335937 1.3571875 14.52335937 0 14.53125 C-2.3125 14.265625 -2.3125 14.265625 -4.3125 12.265625 C-4.578125 9.953125 -4.578125 9.953125 -4.5625 7.265625 C-4.56765625 6.37875 -4.5728125 5.491875 -4.578125 4.578125 C-4.20431154 1.323749 -3.254376 0.37381346 0 0 Z " fill="#FEFEFD" transform="translate(61.3125,79.734375)"/>
</svg>
